<svg width="20" height="20" viewBox="0 0 20 20" fill="none" xmlns="http://www.w3.org/2000/svg">
<path d="M17.4612 9.02283C18.0647 9.02283 18.3167 8.24744 17.8264 7.89001L10.3674 2.46423C10.2609 2.38619 10.1323 2.34412 10.0003 2.34412C9.8682 2.34412 9.73959 2.38619 9.63307 2.46423L2.17408 7.89001C1.68385 8.24548 1.9358 9.02283 2.54127 9.02283H3.75025V16.3275H2.344C2.25807 16.3275 2.18775 16.3978 2.18775 16.4838V17.4994C2.18775 17.5853 2.25807 17.6556 2.344 17.6556H17.6565C17.7424 17.6556 17.8128 17.5853 17.8128 17.4994V16.4838C17.8128 16.3978 17.7424 16.3275 17.6565 16.3275H16.2503V9.02283H17.4612ZM10.0003 3.84119L15.2952 7.69275H4.70533L10.0003 3.84119ZM5.1565 9.02283H7.44166V16.3275H5.1565V9.02283ZM8.84791 9.02283H11.1331V16.3275H8.84791V9.02283ZM14.844 16.3275H12.5393V9.02283H14.844V16.3275Z" fill="black"/>
</svg>
