<svg width="17" height="22" viewBox="0 0 17 22" fill="none" xmlns="http://www.w3.org/2000/svg">
<path d="M15.7246 17H15.1621V9.03125C15.1621 5.72422 12.7176 2.99141 9.53711 2.53672V1.625C9.53711 1.10703 9.11758 0.6875 8.59961 0.6875C8.08164 0.6875 7.66211 1.10703 7.66211 1.625V2.53672C4.48164 2.99141 2.03711 5.72422 2.03711 9.03125V17H1.47461C1.05977 17 0.724609 17.3352 0.724609 17.75V18.5C0.724609 18.6031 0.808984 18.6875 0.912109 18.6875H5.97461C5.97461 20.1359 7.15117 21.3125 8.59961 21.3125C10.048 21.3125 11.2246 20.1359 11.2246 18.6875H16.2871C16.3902 18.6875 16.4746 18.6031 16.4746 18.5V17.75C16.4746 17.3352 16.1395 17 15.7246 17ZM8.59961 19.8125C7.97852 19.8125 7.47461 19.3086 7.47461 18.6875H9.72461C9.72461 19.3086 9.2207 19.8125 8.59961 19.8125ZM3.72461 17V9.03125C3.72461 7.72813 4.23086 6.50469 5.15195 5.58359C6.07305 4.6625 7.29648 4.15625 8.59961 4.15625C9.90273 4.15625 11.1262 4.6625 12.0473 5.58359C12.9684 6.50469 13.4746 7.72813 13.4746 9.03125V17H3.72461Z" fill="black" />
</svg>
