<svg width="20" height="20" viewBox="0 0 20 20" fill="none" xmlns="http://www.w3.org/2000/svg">
<path d="M18.875 2.3125H14.9375V0.8125C14.9375 0.709375 14.8531 0.625 14.75 0.625H13.4375C13.3344 0.625 13.25 0.709375 13.25 0.8125V2.3125H7.25V0.8125C7.25 0.709375 7.16563 0.625 7.0625 0.625H5.75C5.64687 0.625 5.5625 0.709375 5.5625 0.8125V2.3125H1.625C1.21016 2.3125 0.875 2.64766 0.875 3.0625V18.625C0.875 19.0398 1.21016 19.375 1.625 19.375H18.875C19.2898 19.375 19.625 19.0398 19.625 18.625V3.0625C19.625 2.64766 19.2898 2.3125 18.875 2.3125ZM17.9375 17.6875H2.5625V8.78125H17.9375V17.6875ZM2.5625 7.1875V4H5.5625V5.125C5.5625 5.22813 5.64687 5.3125 5.75 5.3125H7.0625C7.16563 5.3125 7.25 5.22813 7.25 5.125V4H13.25V5.125C13.25 5.22813 13.3344 5.3125 13.4375 5.3125H14.75C14.8531 5.3125 14.9375 5.22813 14.9375 5.125V4H17.9375V7.1875H2.5625Z" fill="black"/>
</svg>
