<?xml version="1.0" encoding="iso-8859-1"?>
<!-- Uploaded to: SVG Repo, www.svgrepo.com, Generator: SVG Repo Mixer Tools -->
<svg height="800px" width="800px" version="1.1" id="Layer_1" xmlns="http://www.w3.org/2000/svg" xmlns:xlink="http://www.w3.org/1999/xlink" 
	 viewBox="0 0 512 512" xml:space="preserve">
<path style="fill:#FB7B76;" d="M256.006,12.249c134.611,0,243.745,109.134,243.745,243.758
	c0,134.611-109.134,243.745-243.745,243.745c-134.623,0-243.758-109.134-243.758-243.745
	C12.249,121.383,121.383,12.249,256.006,12.249z M446.581,256.006c0-105.251-85.323-190.587-190.575-190.587
	S65.419,150.755,65.419,256.006s85.335,190.575,190.587,190.575S446.581,361.258,446.581,256.006z"/>
<path style="fill:#D2E3F7;" d="M234.914,238.087c-4.116,4.826-6.59,11.085-6.59,17.92c0,15.274,12.395,27.669,27.682,27.669
	c15.274,0,27.669-12.395,27.669-27.669c0-6.835-2.474-13.094-6.59-17.92c-5.071-5.977-12.628-9.762-21.08-9.762
	C247.555,228.324,239.985,232.109,234.914,238.087z M256.006,65.419c105.251,0,190.575,85.335,190.575,190.587
	s-85.323,190.575-190.575,190.575S65.419,361.258,65.419,256.006S150.755,65.419,256.006,65.419z"/>
<path style="fill:#94C783;" d="M277.086,238.087c4.116,4.826,6.59,11.085,6.59,17.92c0,15.274-12.395,27.669-27.669,27.669
	c-15.286,0-27.682-12.395-27.682-27.669c0-6.835,2.474-13.094,6.59-17.92c5.071-5.977,12.64-9.762,21.092-9.762
	C264.458,228.324,272.015,232.109,277.086,238.087z"/>
<path d="M256.006,0C114.844,0,0,114.844,0,256.006C0,397.162,114.844,512,256.006,512C397.162,512,512,397.162,512,256.006
	C512,114.844,397.162,0,256.006,0z M256.006,487.503c-127.655,0-231.509-103.849-231.509-231.497
	c0-127.655,103.854-231.509,231.509-231.509c127.648,0,231.497,103.854,231.497,231.509
	C487.503,383.654,383.654,487.503,256.006,487.503z"/>
<path d="M410.413,143.611c-5.709,3.627-7.398,11.196-3.771,16.907c18.114,28.515,27.689,61.534,27.689,95.488
	c0,98.329-79.997,178.326-178.326,178.326c-98.336,0-178.338-79.997-178.338-178.326c0-98.336,80.001-178.338,178.338-178.338
	c28.943,0,57.676,7.088,83.09,20.499c5.983,3.16,13.393,0.865,16.549-5.116c3.158-5.983,0.867-13.393-5.116-16.549
	c-28.925-15.263-61.61-23.331-94.522-23.331c-111.844,0-202.835,90.992-202.835,202.835c0,111.837,90.992,202.823,202.835,202.823
	c111.837,0,202.823-90.986,202.823-202.823c0-38.612-10.896-76.175-31.508-108.625C423.693,141.671,416.125,139.981,410.413,143.611
	z"/>
<path d="M373.126,121.522c2.592,2.26,5.146,4.619,7.589,7.011c2.382,2.331,5.476,3.494,8.565,3.494c3.18,0,6.356-1.23,8.755-3.682
	c4.73-4.834,4.647-12.589-0.187-17.322c-2.778-2.718-5.68-5.398-8.623-7.965c-5.099-4.445-12.836-3.916-17.281,1.182
	C367.498,109.34,368.029,117.076,373.126,121.522z"/>
<path d="M268.255,141.997v-20.92c0-6.764-5.485-12.249-12.249-12.249c-6.764,0-12.249,5.485-12.249,12.249v20.92
	c0,6.764,5.485,12.249,12.249,12.249C262.77,154.245,268.255,148.761,268.255,141.997z"/>
<path d="M117.904,246.918c-6.764,0-12.249,5.485-12.249,12.249c0,6.764,5.485,12.249,12.249,12.249h20.92
	c6.764,0,12.249-5.485,12.249-12.249c0-6.764-5.485-12.249-12.249-12.249H117.904z"/>
<path d="M243.745,376.348v20.92c0,6.764,5.485,12.249,12.249,12.249s12.249-5.485,12.249-12.249v-20.92
	c0-6.764-5.485-12.249-12.249-12.249S243.745,369.583,243.745,376.348z"/>
<path d="M373.175,271.427h20.92c6.764,0,12.249-5.485,12.249-12.249c0-6.764-5.485-12.248-12.249-12.248h-20.92
	c-6.764,0-12.249,5.485-12.249,12.248C360.927,265.942,366.411,271.427,373.175,271.427z"/>
<path d="M332.438,182.733c-4.784-4.782-12.538-4.782-17.323,0l-38.865,38.865c-6.064-3.574-13.03-5.522-20.246-5.522
	c-7.224,0-14.196,1.949-20.259,5.52l-72.338-72.338c-4.784-4.782-12.538-4.782-17.323,0c-4.783,4.783-4.783,12.539,0,17.323
	l73.37,73.37c-2.206,5.022-3.381,10.486-3.381,16.055c0,22.011,17.912,39.918,39.93,39.918c22.011,0,39.918-17.907,39.918-39.918
	c0-5.569-1.175-11.032-3.381-16.055l39.895-39.895C337.221,195.273,337.221,187.517,332.438,182.733z M256.006,271.427
	c-8.509,0-15.433-6.917-15.433-15.421c0-4.694,1.99-8.013,3.682-9.996c2.931-3.454,7.214-5.436,11.751-5.436
	c4.53,0,8.808,1.982,11.739,5.436c0.007,0.009,0.015,0.017,0.021,0.026c1.671,1.959,3.661,5.278,3.661,9.972
	C271.427,264.509,264.509,271.427,256.006,271.427z"/>
</svg>