<svg width="25" height="24" viewBox="0 0 25 24" fill="none" xmlns="http://www.w3.org/2000/svg">
<path d="M12.3523 15.4922C12.3699 15.5146 12.3923 15.5327 12.4179 15.5452C12.4435 15.5577 12.4715 15.5641 12.5 15.5641C12.5285 15.5641 12.5565 15.5577 12.5821 15.5452C12.6077 15.5327 12.6301 15.5146 12.6477 15.4922L15.2727 12.1711C15.3687 12.0492 15.282 11.8688 15.125 11.8688H13.3883V3.9375C13.3883 3.83438 13.3039 3.75 13.2008 3.75H11.7945C11.6914 3.75 11.607 3.83438 11.607 3.9375V11.8664H9.875C9.71797 11.8664 9.63125 12.0469 9.72734 12.1688L12.3523 15.4922ZM21.0781 14.6719H19.6719C19.5687 14.6719 19.4844 14.7563 19.4844 14.8594V18.4688H5.51562V14.8594C5.51562 14.7563 5.43125 14.6719 5.32812 14.6719H3.92188C3.81875 14.6719 3.73438 14.7563 3.73438 14.8594V19.5C3.73438 19.9148 4.06953 20.25 4.48438 20.25H20.5156C20.9305 20.25 21.2656 19.9148 21.2656 19.5V14.8594C21.2656 14.7563 21.1813 14.6719 21.0781 14.6719Z" fill="#FA8C16"/>
</svg>
