<svg width="25" height="25" viewBox="0 0 25 25" fill="none" xmlns="http://www.w3.org/2000/svg">
<path d="M21.8115 12.3661L18.8209 10.0059C18.7959 9.98624 18.7658 9.974 18.7341 9.97062C18.7025 9.96723 18.6705 9.97283 18.6419 9.98677C18.6133 10.0007 18.5892 10.0224 18.5723 10.0495C18.5555 10.0765 18.5466 10.1077 18.5467 10.1395V11.6559H13.3435V6.4528H14.8623C15.0029 6.4528 15.0826 6.28873 14.9959 6.17858L12.6334 3.18795C12.6178 3.16772 12.5977 3.15133 12.5747 3.14006C12.5518 3.12879 12.5265 3.12292 12.501 3.12292C12.4754 3.12292 12.4502 3.12879 12.4272 3.14006C12.4042 3.15133 12.3842 3.16772 12.3685 3.18795L10.006 6.17858C9.98636 6.2036 9.97413 6.23366 9.97074 6.26532C9.96735 6.29697 9.97295 6.32894 9.98689 6.35756C10.0008 6.38618 10.0226 6.41029 10.0496 6.42714C10.0766 6.44398 10.1078 6.45287 10.1396 6.4528H11.656V11.6559H6.45292V10.1372C6.45292 9.99655 6.28886 9.91686 6.1787 10.0036L3.18808 12.3661C3.16784 12.3817 3.15145 12.4018 3.14018 12.4247C3.12891 12.4477 3.12305 12.4729 3.12305 12.4985C3.12305 12.5241 3.12891 12.5493 3.14018 12.5723C3.15145 12.5952 3.16784 12.6153 3.18808 12.6309L6.17636 14.9934C6.28651 15.0801 6.45058 15.0028 6.45058 14.8598V13.3434H11.6537V18.5465H10.135C9.99433 18.5465 9.91464 18.7106 10.0014 18.8208L12.3639 21.809C12.4318 21.8958 12.5631 21.8958 12.6287 21.809L14.9912 18.8208C15.0779 18.7106 15.0006 18.5465 14.8576 18.5465H13.3435V13.3434H18.5467V14.8622C18.5467 15.0028 18.7107 15.0825 18.8209 14.9958L21.8092 12.6333C21.8293 12.6174 21.8457 12.5972 21.857 12.5742C21.8683 12.5512 21.8743 12.5259 21.8745 12.5002C21.8748 12.4746 21.8692 12.4492 21.8583 12.426C21.8474 12.4028 21.8314 12.3823 21.8115 12.3661Z" fill="black" fill-opacity="0.25"/>
</svg>
