<svg width="18" height="18" viewBox="0 0 18 18" fill="none" xmlns="http://www.w3.org/2000/svg">
<path d="M9 5.74805C8.47441 5.74805 7.98047 5.95195 7.60781 6.32461C7.42469 6.50721 7.27948 6.72421 7.18053 6.96314C7.08158 7.20206 7.03085 7.45819 7.03125 7.7168C7.03125 8.24238 7.23691 8.73633 7.60781 9.10898C7.79041 9.29211 8.00741 9.43732 8.24634 9.53627C8.48526 9.63522 8.7414 9.68595 9 9.68555C9.52559 9.68555 10.0195 9.47988 10.3922 9.10898C10.7648 8.73633 10.9688 8.24238 10.9688 7.7168C10.9688 7.19121 10.7648 6.69727 10.3922 6.32461C10.0195 5.95195 9.52559 5.74805 9 5.74805ZM15.0223 5.08184C14.6913 4.31874 14.2142 3.62781 13.6178 3.04805C13.0194 2.46305 12.314 1.99874 11.54 1.68047C10.735 1.34648 9.88066 1.17773 9 1.17773C8.11934 1.17773 7.26504 1.34648 6.45996 1.67871C5.68125 2.00039 4.9834 2.46094 4.38223 3.04629C3.78619 3.62638 3.30911 4.31722 2.97773 5.08008C2.63496 5.87109 2.46094 6.71133 2.46094 7.57617C2.46094 8.81719 2.75801 10.0529 3.3416 11.2447C3.81094 12.2027 4.4666 13.1361 5.29277 14.0238C6.7043 15.5391 8.18437 16.4654 8.60449 16.7133C8.72374 16.7837 8.85975 16.8207 8.99824 16.8205C9.13535 16.8205 9.2707 16.7854 9.39199 16.7133C9.81211 16.4654 11.2922 15.5391 12.7037 14.0238C13.5299 13.1379 14.1855 12.2027 14.6549 11.2447C15.242 10.0547 15.5391 8.8207 15.5391 7.57793C15.5391 6.71309 15.365 5.87285 15.0223 5.08184ZM9 10.8105C7.29141 10.8105 5.90625 9.42539 5.90625 7.7168C5.90625 6.0082 7.29141 4.62305 9 4.62305C10.7086 4.62305 12.0938 6.0082 12.0938 7.7168C12.0938 9.42539 10.7086 10.8105 9 10.8105Z" fill="currentColor"/>
</svg>
