<svg width="20" height="20" viewBox="0 0 20 20" fill="none" xmlns="http://www.w3.org/2000/svg">
<path d="M17.3496 14.793H16.2988C16.2168 14.793 16.1484 14.8613 16.1484 14.9434V16.1504H3.84961V3.84961H16.1504V5.05664C16.1504 5.13867 16.2188 5.20703 16.3008 5.20703H17.3516C17.4336 5.20703 17.502 5.14062 17.502 5.05664V3.09961C17.502 2.76758 17.2344 2.5 16.9023 2.5H3.09961C2.76758 2.5 2.5 2.76758 2.5 3.09961V16.9004C2.5 17.2324 2.76758 17.5 3.09961 17.5H16.9004C17.2324 17.5 17.5 17.2324 17.5 16.9004V14.9434C17.5 14.8594 17.4316 14.793 17.3496 14.793ZM17.7129 9.87695L14.9414 7.68945C14.8379 7.60742 14.6875 7.68164 14.6875 7.8125V9.29688H8.55469C8.46875 9.29688 8.39844 9.36719 8.39844 9.45312V10.5469C8.39844 10.6328 8.46875 10.7031 8.55469 10.7031H14.6875V12.1875C14.6875 12.3184 14.8398 12.3926 14.9414 12.3105L17.7129 10.123C17.7316 10.1084 17.7467 10.0898 17.7571 10.0684C17.7674 10.0471 17.7728 10.0237 17.7728 10C17.7728 9.97629 17.7674 9.95288 17.7571 9.93156C17.7467 9.91024 17.7316 9.89157 17.7129 9.87695Z" fill="#1677FF"/>
</svg>
