<svg width="20" height="20" viewBox="0 0 20 20" fill="none" xmlns="http://www.w3.org/2000/svg">
<g clip-path="url(#clip0_4422_21277)">
<path d="M14.2858 3.57144V10.7143M14.2858 3.57144L12.1429 0.714294M14.2858 3.57144L16.4286 0.714294M0.714355 15.7143L4.20578 18.6229C4.71923 19.0504 5.36625 19.2844 6.03436 19.2843H15.2372C15.8944 19.2843 16.4286 18.7514 16.4286 18.0943C16.4286 16.78 15.3629 15.7129 14.0472 15.7129H7.64864M19.2858 3.57144H9.28578V10.7143H19.2858V3.57144Z" stroke="black" stroke-linecap="round" stroke-linejoin="round"/>
<path d="M5.00007 14.2857L6.0715 15.3572C6.35566 15.6413 6.74106 15.801 7.14293 15.801C7.54479 15.801 7.93019 15.6413 8.21436 15.3572C8.49852 15.073 8.65816 14.6876 8.65816 14.2857C8.65816 13.8839 8.49852 13.4985 8.21436 13.2143L6.5515 11.55C6.28579 11.2846 5.97037 11.0742 5.62327 10.9308C5.27616 10.7874 4.9042 10.7138 4.52864 10.7143H0.714355" stroke="black" stroke-linecap="round" stroke-linejoin="round"/>
</g>
<defs>
<clipPath id="clip0_4422_21277">
<rect width="20" height="20" fill="white"/>
</clipPath>
</defs>
</svg>
