<svg width="22" height="22" viewBox="0 0 22 22" fill="none" xmlns="http://www.w3.org/2000/svg">
<path d="M20.9339 10.8373L11.8776 1.78572L11.2706 1.17868C11.1323 1.04129 10.9452 0.964172 10.7503 0.964172C10.5553 0.964172 10.3683 1.04129 10.23 1.17868L0.566699 10.8373C0.424975 10.9784 0.312968 11.1466 0.23729 11.3318C0.161611 11.5169 0.123795 11.7154 0.126074 11.9154C0.135449 12.7404 0.822167 13.399 1.64717 13.399H2.64326V21.0326H18.8573V13.399H19.8745C20.2753 13.399 20.6526 13.242 20.9362 12.9584C21.0759 12.8192 21.1865 12.6537 21.2617 12.4714C21.337 12.2892 21.3753 12.0938 21.3745 11.8967C21.3745 11.4982 21.2175 11.1209 20.9339 10.8373ZM12.0628 19.3451H9.43779V14.5638H12.0628V19.3451ZM17.1698 11.7115V19.3451H13.5628V14.0013C13.5628 13.4834 13.1433 13.0638 12.6253 13.0638H8.87529C8.35732 13.0638 7.93779 13.4834 7.93779 14.0013V19.3451H4.33076V11.7115H2.08076L10.7526 3.04665L11.294 3.58806L19.4222 11.7115H17.1698Z" fill="black"/>
</svg>
