<svg width="20" height="20" viewBox="0 0 20 20"  xmlns="http://www.w3.org/2000/svg">
<path d="M14.4922 6.21094V3.59375H16.1719C16.2578 3.59375 16.3281 3.52344 16.3281 3.4375V2.34375C16.3281 2.25781 16.2578 2.1875 16.1719 2.1875H3.82812C3.74219 2.1875 3.67188 2.25781 3.67188 2.34375V3.4375C3.67188 3.52344 3.74219 3.59375 3.82812 3.59375H5.50781V6.21094C5.50781 7.80273 6.33594 9.20312 7.58594 10C6.33594 10.7969 5.50781 12.1973 5.50781 13.7891V16.4062H3.82812C3.74219 16.4062 3.67188 16.4766 3.67188 16.5625V17.6562C3.67188 17.7422 3.74219 17.8125 3.82812 17.8125H16.1719C16.2578 17.8125 16.3281 17.7422 16.3281 17.6562V16.5625C16.3281 16.4766 16.2578 16.4062 16.1719 16.4062H14.4922V13.7891C14.4922 12.1973 13.6641 10.7969 12.4141 10C13.6641 9.20312 14.4922 7.80273 14.4922 6.21094ZM13.0859 13.7891V16.4062H6.91406V13.7891C6.91406 12.9648 7.23437 12.1895 7.81836 11.6074C8.40039 11.0234 9.17578 10.7031 10 10.7031C10.8242 10.7031 11.5996 11.0234 12.1816 11.6074C12.7656 12.1895 13.0859 12.9648 13.0859 13.7891ZM13.0859 6.21094C13.0859 7.03516 12.7656 7.81055 12.1816 8.39258C11.5996 8.97656 10.8242 9.29688 10 9.29688C9.17578 9.29688 8.40039 8.97656 7.81836 8.39258C7.53058 8.107 7.30244 7.76707 7.1472 7.39254C6.99196 7.01801 6.91271 6.61636 6.91406 6.21094V3.59375H13.0859V6.21094Z" fill="currentColor" />
</svg>
