<svg width="20" height="20" viewBox="0 0 20 20" fill="none" xmlns="http://www.w3.org/2000/svg">
<path d="M17.3496 14.793H16.2988C16.2168 14.793 16.1484 14.8613 16.1484 14.9434V16.1504H3.84961V3.84961H16.1504V5.05664C16.1504 5.13867 16.2188 5.20703 16.3008 5.20703H17.3516C17.4336 5.20703 17.502 5.14062 17.502 5.05664V3.09961C17.502 2.76758 17.2344 2.5 16.9023 2.5H3.09961C2.76758 2.5 2.5 2.76758 2.5 3.09961V16.9004C2.5 17.2324 2.76758 17.5 3.09961 17.5H16.9004C17.2324 17.5 17.5 17.2324 17.5 16.9004V14.9434C17.5 14.8594 17.4316 14.793 17.3496 14.793ZM17.6172 9.29688H11.4844V7.8125C11.4844 7.68164 11.332 7.60742 11.2305 7.68945L8.45898 9.87695C8.44031 9.89157 8.42521 9.91024 8.41482 9.93156C8.40443 9.95288 8.39903 9.97629 8.39903 10C8.39903 10.0237 8.40443 10.0471 8.41482 10.0684C8.42521 10.0898 8.44031 10.1084 8.45898 10.123L11.2305 12.3105C11.334 12.3926 11.4844 12.3184 11.4844 12.1875V10.7031H17.6172C17.7031 10.7031 17.7734 10.6328 17.7734 10.5469V9.45312C17.7734 9.36719 17.7031 9.29688 17.6172 9.29688Z" fill="#FA541C"/>
</svg>
