<svg width="20" height="20" viewBox="0 0 20 20" fill="none" xmlns="http://www.w3.org/2000/svg">
<path d="M7.1013 5.98424V4.92741C7.1013 4.8358 7.20657 4.78522 7.27767 4.84127L13.4409 9.65514C13.4933 9.69586 13.5357 9.74801 13.5648 9.8076C13.594 9.86719 13.6091 9.93265 13.6091 9.99899C13.6091 10.0653 13.594 10.1308 13.5648 10.1904C13.5357 10.25 13.4933 10.3021 13.4409 10.3428L7.27767 15.1567C7.2052 15.2128 7.1013 15.1622 7.1013 15.0706V14.0137C7.1013 13.9467 7.13274 13.8825 7.1847 13.8415L12.1066 9.99967L7.1847 6.15651C7.13274 6.11549 7.1013 6.05123 7.1013 5.98424Z" fill="#212533"/>
</svg>
