<svg width="24" height="25" viewBox="0 0 24 25" fill="none" xmlns="http://www.w3.org/2000/svg">
<path d="M20.343 17.6548H18.6953C18.5828 17.6548 18.4774 17.704 18.4071 17.7908C18.243 17.99 18.0672 18.1822 17.8821 18.365C17.1248 19.123 16.2278 19.7271 15.2407 20.1439C14.218 20.5758 13.1188 20.7974 12.0086 20.7954C10.886 20.7954 9.79847 20.5751 8.7766 20.1439C7.78948 19.7271 6.89247 19.123 6.13519 18.365C5.37656 17.6095 4.77164 16.7141 4.35394 15.7283C3.92035 14.7064 3.70238 13.6212 3.70238 12.4986C3.70238 11.3759 3.92269 10.2908 4.35394 9.26888C4.77113 8.28217 5.37113 7.39388 6.13519 6.63216C6.89925 5.87045 7.78754 5.27045 8.7766 4.85326C9.79847 4.42201 10.886 4.2017 12.0086 4.2017C13.1313 4.2017 14.2188 4.41966 15.2407 4.85326C16.2297 5.27045 17.118 5.87045 17.8821 6.63216C18.0672 6.81732 18.2407 7.00951 18.4071 7.20638C18.4774 7.2931 18.5852 7.34232 18.6953 7.34232H20.343C20.4907 7.34232 20.5821 7.17826 20.5 7.05404C18.7024 4.26029 15.5571 2.41107 11.9828 2.42045C6.36722 2.43451 1.86488 6.9931 1.92113 12.6017C1.97738 18.1212 6.47269 22.5767 12.0086 22.5767C15.5735 22.5767 18.7047 20.7298 20.5 17.9431C20.5797 17.8189 20.4907 17.6548 20.343 17.6548ZM22.4266 12.3509L19.1008 9.72591C18.9766 9.62748 18.7961 9.71654 18.7961 9.87357V11.6548H11.4368C11.3336 11.6548 11.2493 11.7392 11.2493 11.8423V13.1548C11.2493 13.2579 11.3336 13.3423 11.4368 13.3423H18.7961V15.1236C18.7961 15.2806 18.9789 15.3697 19.1008 15.2712L22.4266 12.6462C22.449 12.6287 22.4671 12.6063 22.4796 12.5807C22.4921 12.5551 22.4985 12.527 22.4985 12.4986C22.4985 12.4701 22.4921 12.442 22.4796 12.4164C22.4671 12.3909 22.449 12.3685 22.4266 12.3509Z" fill="black"/>
</svg>
