<svg width="21" height="20" viewBox="0 0 21 20" fill="none" xmlns="http://www.w3.org/2000/svg">
<path d="M9.31261 10C9.31261 10.2486 9.41138 10.4871 9.5872 10.6629C9.76301 10.8387 10.0015 10.9375 10.2501 10.9375C10.4988 10.9375 10.7372 10.8387 10.913 10.6629C11.0888 10.4871 11.1876 10.2486 11.1876 10C11.1876 9.75136 11.0888 9.5129 10.913 9.33709C10.7372 9.16127 10.4988 9.0625 10.2501 9.0625C10.0015 9.0625 9.76301 9.16127 9.5872 9.33709C9.41138 9.5129 9.31261 9.75136 9.31261 10ZM13.2189 10C13.2189 10.2486 13.3176 10.4871 13.4934 10.6629C13.6693 10.8387 13.9077 10.9375 14.1564 10.9375C14.405 10.9375 14.6435 10.8387 14.8193 10.6629C14.9951 10.4871 15.0939 10.2486 15.0939 10C15.0939 9.75136 14.9951 9.5129 14.8193 9.33709C14.6435 9.16127 14.405 9.0625 14.1564 9.0625C13.9077 9.0625 13.6693 9.16127 13.4934 9.33709C13.3176 9.5129 13.2189 9.75136 13.2189 10ZM5.40636 10C5.40636 10.2486 5.50513 10.4871 5.68095 10.6629C5.85676 10.8387 6.09522 10.9375 6.34386 10.9375C6.5925 10.9375 6.83096 10.8387 7.00677 10.6629C7.18259 10.4871 7.28136 10.2486 7.28136 10C7.28136 9.75136 7.18259 9.5129 7.00677 9.33709C6.83096 9.16127 6.5925 9.0625 6.34386 9.0625C6.09522 9.0625 5.85676 9.16127 5.68095 9.33709C5.50513 9.5129 5.40636 9.75136 5.40636 10ZM18.3204 6.60938C17.879 5.56055 17.2462 4.61914 16.4396 3.81055C15.6386 3.00663 14.6877 2.36762 13.6407 1.92969C12.5665 1.47852 11.4259 1.25 10.2501 1.25H10.211C9.02745 1.25586 7.88097 1.49023 6.80285 1.95117C5.76487 2.3936 4.82289 3.03374 4.02941 3.83594C3.23058 4.64258 2.60363 5.58008 2.17003 6.625C1.72081 7.70703 1.49425 8.85742 1.50011 10.041C1.50674 11.3974 1.82763 12.7338 2.43761 13.9453V16.9141C2.43761 17.1523 2.53227 17.3809 2.70076 17.5494C2.86925 17.7178 3.09777 17.8125 3.33605 17.8125H6.30675C7.51826 18.4225 8.85466 18.7434 10.211 18.75H10.2521C11.422 18.75 12.5568 18.5234 13.6251 18.0801C14.6668 17.6474 15.6141 17.0158 16.4142 16.2207C17.2208 15.4219 17.8556 14.4883 18.2989 13.4473C18.7599 12.3691 18.9943 11.2227 19.0001 10.0391C19.006 8.84961 18.7755 7.69531 18.3204 6.60938ZM15.3693 15.1641C14.0001 16.5195 12.1837 17.2656 10.2501 17.2656H10.2169C9.03917 17.2598 7.86925 16.9668 6.83605 16.416L6.67199 16.3281H3.92199V13.5781L3.8341 13.4141C3.28331 12.3809 2.99035 11.2109 2.98449 10.0332C2.97667 8.08594 3.72081 6.25781 5.08605 4.88086C6.44933 3.50391 8.2716 2.74219 10.2189 2.73438H10.2521C11.2286 2.73438 12.1759 2.92383 13.0685 3.29883C13.9396 3.66406 14.7208 4.18945 15.3927 4.86133C16.0626 5.53125 16.59 6.31445 16.9552 7.18555C17.3341 8.08789 17.5235 9.04492 17.5196 10.0332C17.5079 11.9785 16.7443 13.8008 15.3693 15.1641Z" fill="black" fill-opacity="0.88"/>
</svg>
