<svg width="25" height="25" viewBox="0 0 25 25" fill="none" xmlns="http://www.w3.org/2000/svg">
<path d="M16.8125 11.75H8.1875C8.08437 11.75 8 11.8344 8 11.9375V13.0625C8 13.1656 8.08437 13.25 8.1875 13.25H16.8125C16.9156 13.25 17 13.1656 17 13.0625V11.9375C17 11.8344 16.9156 11.75 16.8125 11.75Z" fill="#CF1322"/>
<path d="M12.5 2C6.70156 2 2 6.70156 2 12.5C2 18.2984 6.70156 23 12.5 23C18.2984 23 23 18.2984 23 12.5C23 6.70156 18.2984 2 12.5 2ZM12.5 21.2188C7.68594 21.2188 3.78125 17.3141 3.78125 12.5C3.78125 7.68594 7.68594 3.78125 12.5 3.78125C17.3141 3.78125 21.2188 7.68594 21.2188 12.5C21.2188 17.3141 17.3141 21.2188 12.5 21.2188Z" fill="#CF1322"/>
</svg>
