<svg width="30" height="31" viewBox="0 0 30 31" fill="none" xmlns="http://www.w3.org/2000/svg">
<path d="M11.875 17.6875C11.875 18.9 12.8125 19.875 13.9625 19.875H16.3125C17.3125 19.875 18.125 19.025 18.125 17.9625C18.125 16.825 17.625 16.4125 16.8875 16.15L13.125 14.8375C12.3875 14.575 11.8875 14.175 11.8875 13.025C11.8875 11.975 12.7 11.1125 13.7 11.1125H16.05C17.2 11.1125 18.1375 12.0875 18.1375 13.3" stroke="#29CC6A" stroke-width="1.5" stroke-linecap="round" stroke-linejoin="round"/>
<path d="M15 9.875V21.125" stroke="#29CC6A" stroke-width="1.5" stroke-linecap="round" stroke-linejoin="round"/>
<path d="M27.5 15.5C27.5 22.4 21.9 28 15 28C8.1 28 2.5 22.4 2.5 15.5C2.5 8.6 8.1 3 15 3" stroke="#29CC6A" stroke-width="1.5" stroke-linecap="round" stroke-linejoin="round"/>
<path d="M21.25 4.25V9.25H26.25" stroke="#29CC6A" stroke-width="1.5" stroke-linecap="round" stroke-linejoin="round"/>
<path d="M27.5 3L21.25 9.25" stroke="#29CC6A" stroke-width="1.5" stroke-linecap="round" stroke-linejoin="round"/>
</svg>
