<svg width="21" height="20" viewBox="0 0 21 20" fill="none" xmlns="http://www.w3.org/2000/svg">
<path d="M17.224 14.4016C16.9818 12.9329 15.6771 11.8802 14.1908 11.9524C12.7044 12.0247 11.5091 13.2024 11.4134 14.6868C8.41536 14.5931 7.35091 13.8919 7.52473 12.4661C7.58919 11.9329 7.91145 11.6477 8.50325 11.5091C8.86263 11.4251 9.26106 11.4134 9.62239 11.4466C9.65559 11.4505 9.69075 11.4524 9.72395 11.4563C9.94466 11.5091 10.1693 11.554 10.3939 11.5891C11.0599 11.6985 11.7376 11.7532 12.3822 11.718C14.1947 11.6204 15.429 10.8216 15.4915 9.12625C15.5521 7.48367 14.4232 6.31961 12.6029 5.54031C12.0189 5.29031 11.3997 5.09696 10.7806 4.95047C10.5013 4.88406 10.2669 4.83914 10.0931 4.80985C9.9388 3.32742 8.69661 2.19656 7.20638 2.18485C5.71614 2.17313 4.45442 3.28055 4.27473 4.76102C4.09505 6.24149 5.05598 7.61844 6.5052 7.96219C7.95442 8.30594 9.43294 7.50711 9.93684 6.10477C10.1204 6.13797 10.3021 6.17508 10.4837 6.21805C11.0345 6.34696 11.5853 6.51883 12.0931 6.73758C13.474 7.32742 14.2279 8.10672 14.1927 9.07938C14.1615 9.95047 13.5365 10.3528 12.3138 10.4192C11.7767 10.4485 11.1888 10.4016 10.6087 10.3059C10.4466 10.2786 10.2982 10.2513 10.1673 10.222C10.0911 10.2063 10.0384 10.1927 10.015 10.1868L9.95442 10.1751C9.91145 10.1692 9.83919 10.1595 9.74544 10.1497C9.25716 10.1048 8.72786 10.1204 8.21223 10.2395C7.13411 10.4915 6.37825 11.1614 6.23763 12.3059C5.93098 14.7708 7.77278 15.9134 11.6283 15.9954C12.1966 17.3704 13.7064 18.1028 15.1361 17.6946C16.5677 17.2864 17.4661 15.8704 17.224 14.4016ZM7.17708 6.74149C6.27864 6.74149 5.55013 6.01297 5.55013 5.11453C5.55013 4.2161 6.27864 3.48758 7.17708 3.48758C8.07552 3.48758 8.80403 4.2161 8.80403 5.11453C8.80403 6.01297 8.07552 6.74149 7.17708 6.74149ZM14.3353 16.5032C13.4368 16.5032 12.7083 15.7747 12.7083 14.8763C12.7083 13.9778 13.4368 13.2493 14.3353 13.2493C15.2337 13.2493 15.9622 13.9778 15.9622 14.8763C15.9622 15.7747 15.2337 16.5032 14.3353 16.5032Z" fill="#FA8C16"/>
</svg>
