<svg width="21" height="20" viewBox="0 0 21 20" fill="none" xmlns="http://www.w3.org/2000/svg">
<path d="M17.6245 10.1179H10.6323V3.12572C10.6323 3.03978 10.562 2.96947 10.4761 2.96947H9.96827C8.9423 2.96779 7.92611 3.16899 6.97819 3.5615C6.03026 3.95401 5.1693 4.53009 4.44484 5.25658C3.73138 5.96783 3.1629 6.81092 2.77101 7.739C2.36321 8.70157 2.15395 9.73657 2.15577 10.782C2.15409 11.8079 2.3553 12.8241 2.74781 13.7721C3.14032 14.72 3.71639 15.5809 4.44288 16.3054C5.15968 17.0222 5.99562 17.5867 6.92531 17.9792C7.88788 18.387 8.92288 18.5963 9.96827 18.5945C10.9943 18.5961 12.0104 18.3949 12.9584 18.0024C13.9063 17.6099 14.7673 17.0338 15.4917 16.3074C16.2085 15.5906 16.773 14.7546 17.1655 13.8249C17.5733 12.8624 17.7826 11.8274 17.7808 10.782V10.2742C17.7808 10.1882 17.7105 10.1179 17.6245 10.1179ZM14.5327 15.3874C13.9279 15.9875 13.2107 16.4624 12.4221 16.7848C11.6335 17.1072 10.789 17.2708 9.93702 17.2663C8.21632 17.2585 6.59913 16.5847 5.38234 15.3679C4.15773 14.1433 3.4839 12.5144 3.4839 10.782C3.4839 9.04954 4.15773 7.42064 5.38234 6.19603C6.44874 5.12962 7.82179 4.47923 9.30421 4.33079V11.446H16.4194C16.2691 12.9363 15.6128 14.3171 14.5327 15.3874ZM19.3433 9.03197L19.2925 8.48118C19.1265 6.68236 18.3276 4.98509 17.0425 3.70384C15.7564 2.42024 14.0627 1.62584 12.2534 1.45775L11.7007 1.40697C11.6089 1.39915 11.5308 1.46947 11.5308 1.56126V9.06322C11.5308 9.14915 11.6011 9.21947 11.687 9.21947L19.187 9.19993C19.2788 9.19993 19.3511 9.12181 19.3433 9.03197ZM12.855 7.89525V2.88353C14.0853 3.14104 15.2144 3.75036 16.105 4.63743C16.9976 5.52806 17.6089 6.66087 17.8628 7.88158L12.855 7.89525Z" fill="black" fill-opacity="0.88"/>
</svg>
