<svg width="8" height="20" viewBox="0 0 8 20" fill="none" xmlns="http://www.w3.org/2000/svg">
<path d="M3.99998 0C3.50211 -2.77142e-09 3.00911 0.0980704 2.54914 0.288611C2.08917 0.479152 1.67123 0.75843 1.3192 1.1105C0.967169 1.46257 0.687934 1.88053 0.497442 2.34052C0.30695 2.80052 0.208932 3.29353 0.208984 3.7914C0.208956 4.71025 0.542648 5.59784 1.148 6.28909C1.75335 6.98034 2.58916 7.42821 3.49998 7.5494V19.5C3.49998 19.6326 3.55266 19.7598 3.64643 19.8536C3.7402 19.9473 3.86738 20 3.99998 20C4.13259 20 4.25977 19.9473 4.35354 19.8536C4.44731 19.7598 4.49998 19.6326 4.49998 19.5V7.5492C5.41077 7.42802 6.24655 6.98018 6.8519 6.28897C7.45725 5.59775 7.79096 4.71022 7.79098 3.7914C7.79104 3.29353 7.69302 2.80052 7.50253 2.34052C7.31203 1.88053 7.0328 1.46257 6.68077 1.1105C6.32874 0.75843 5.9108 0.479152 5.45083 0.288611C4.99086 0.0980704 4.49786 -2.77142e-09 3.99998 0ZM3.03358 1.7098C3.18978 1.7098 3.34444 1.74056 3.48875 1.80034C3.63305 1.86011 3.76417 1.94772 3.87462 2.05817C3.98506 2.16861 4.07267 2.29973 4.13245 2.44404C4.19222 2.58834 4.22298 2.74301 4.22298 2.8992C4.22298 3.05539 4.19222 3.21006 4.13245 3.35436C4.07267 3.49867 3.98506 3.62979 3.87462 3.74023C3.76417 3.85068 3.63305 3.93829 3.48875 3.99806C3.34444 4.05784 3.18978 4.0886 3.03358 4.0886C2.71814 4.0886 2.41561 3.96329 2.19255 3.74023C1.9695 3.51718 1.84418 3.21465 1.84418 2.8992C1.84418 2.58375 1.9695 2.28122 2.19255 2.05817C2.41561 1.83511 2.71814 1.7098 3.03358 1.7098Z" fill="currentColor" />
</svg>
