<svg width="20" height="20" viewBox="0 0 20 20" fill="none" xmlns="http://www.w3.org/2000/svg">
<path d="M18.375 0.625H1.125C0.710156 0.625 0.375 0.960156 0.375 1.375V18.625C0.375 19.0398 0.710156 19.375 1.125 19.375H18.375C18.7898 19.375 19.125 19.0398 19.125 18.625V1.375C19.125 0.960156 18.7898 0.625 18.375 0.625ZM17.4375 17.6875H2.0625V2.3125H17.4375V17.6875ZM9.28125 7.375H13.5938C13.6969 7.375 13.7812 7.29063 13.7812 7.1875V6.0625C13.7812 5.95937 13.6969 5.875 13.5938 5.875H9.28125C9.17813 5.875 9.09375 5.95937 9.09375 6.0625V7.1875C9.09375 7.29063 9.17813 7.375 9.28125 7.375ZM9.28125 10.75H13.5938C13.6969 10.75 13.7812 10.6656 13.7812 10.5625V9.4375C13.7812 9.33438 13.6969 9.25 13.5938 9.25H9.28125C9.17813 9.25 9.09375 9.33438 9.09375 9.4375V10.5625C9.09375 10.6656 9.17813 10.75 9.28125 10.75ZM9.28125 14.125H13.5938C13.6969 14.125 13.7812 14.0406 13.7812 13.9375V12.8125C13.7812 12.7094 13.6969 12.625 13.5938 12.625H9.28125C9.17813 12.625 9.09375 12.7094 9.09375 12.8125V13.9375C9.09375 14.0406 9.17813 14.125 9.28125 14.125ZM5.71875 6.625C5.71875 6.87364 5.81752 7.1121 5.99334 7.28791C6.16915 7.46373 6.40761 7.5625 6.65625 7.5625C6.90489 7.5625 7.14335 7.46373 7.31916 7.28791C7.49498 7.1121 7.59375 6.87364 7.59375 6.625C7.59375 6.37636 7.49498 6.1379 7.31916 5.96209C7.14335 5.78627 6.90489 5.6875 6.65625 5.6875C6.40761 5.6875 6.16915 5.78627 5.99334 5.96209C5.81752 6.1379 5.71875 6.37636 5.71875 6.625ZM5.71875 10C5.71875 10.2486 5.81752 10.4871 5.99334 10.6629C6.16915 10.8387 6.40761 10.9375 6.65625 10.9375C6.90489 10.9375 7.14335 10.8387 7.31916 10.6629C7.49498 10.4871 7.59375 10.2486 7.59375 10C7.59375 9.75136 7.49498 9.5129 7.31916 9.33709C7.14335 9.16127 6.90489 9.0625 6.65625 9.0625C6.40761 9.0625 6.16915 9.16127 5.99334 9.33709C5.81752 9.5129 5.71875 9.75136 5.71875 10ZM5.71875 13.375C5.71875 13.6236 5.81752 13.8621 5.99334 14.0379C6.16915 14.2137 6.40761 14.3125 6.65625 14.3125C6.90489 14.3125 7.14335 14.2137 7.31916 14.0379C7.49498 13.8621 7.59375 13.6236 7.59375 13.375C7.59375 13.1264 7.49498 12.8879 7.31916 12.7121C7.14335 12.5363 6.90489 12.4375 6.65625 12.4375C6.40761 12.4375 6.16915 12.5363 5.99334 12.7121C5.81752 12.8879 5.71875 13.1264 5.71875 13.375Z" fill="black"/>
</svg>
