<svg width="24" height="24" viewBox="0 0 24 24" fill="none" xmlns="http://www.w3.org/2000/svg">
<path d="M9.65625 10.1562H10.1562V9.65625V4.5V4H9.65625H4.5H4V4.5V9.65625V10.1562H4.5H9.65625ZM9.65625 20H10.1562V19.5V14.3438V13.8438H9.65625H4.5H4V14.3438V19.5V20H4.5H9.65625ZM19.5 10.1562H20V9.65625V4.5V4H19.5H14.3438H13.8438V4.5V9.65625V10.1562H14.3438H19.5ZM19.5 16.6719H20V16.1719V13.3438H20.5V17.1719H16.6719V15.0938V14.5938H16.1719H14.3438H13.8438V15.0938V20.5H13.3438V13.3438H17.1719V16.1719V16.6719H17.6719H19.5ZM3.75 3.5H10.6562V10.6562H3.5V3.75C3.5 3.6113 3.6113 3.5 3.75 3.5ZM7.42188 7.42188H6.73438V6.73438H7.42188V7.42188ZM3.5 13.3438H10.6562V20.5H3.75C3.6113 20.5 3.5 20.3887 3.5 20.25V13.3438ZM7.42188 17.2656H6.73438V16.5781H7.42188V17.2656ZM13.3438 3.5H20.25C20.3887 3.5 20.5 3.6113 20.5 3.75V10.6562H13.3438V3.5ZM17.2656 7.42188H16.5781V6.73438H17.2656V7.42188ZM16.6719 20.5V20H17.1719V20.5H16.6719ZM20 20.5V20H20.5V20.5H20Z" fill="black" fill-opacity="0.45" stroke="#FA8C16"/>
</svg>
