<svg width="24" height="25" viewBox="0 0 24 25" fill="none" xmlns="http://www.w3.org/2000/svg">
<path d="M15 4.5V11.5H5.17L4 12.67V4.5H15ZM16 2.5H3C2.45 2.5 2 2.95 2 3.5V17.5L6 13.5H16C16.55 13.5 17 13.05 17 12.5V3.5C17 2.95 16.55 2.5 16 2.5ZM21 6.5H19V15.5H6V17.5C6 18.05 6.45 18.5 7 18.5H18L22 22.5V7.5C22 6.95 21.55 6.5 21 6.5Z" fill="black"/>
<path d="M15.5 4.5V4H15H4H3.5V4.5V12.67V13.8771L4.35355 13.0236L5.37711 12H15H15.5V11.5V4.5ZM6 13H5.79289L5.64645 13.1464L2.5 16.2929V3.5C2.5 3.22614 2.72614 3 3 3H16C16.2739 3 16.5 3.22614 16.5 3.5V12.5C16.5 12.7739 16.2739 13 16 13H6ZM19 16H19.5V15.5V7H21C21.2739 7 21.5 7.22614 21.5 7.5V21.2929L18.3536 18.1464L18.2071 18H18H7C6.72614 18 6.5 17.7739 6.5 17.5V16H19Z" stroke="black"/>
</svg>
