<svg width="24" height="24" viewBox="0 0 24 24" fill="none" xmlns="http://www.w3.org/2000/svg">
<path d="M21.676 14.6633L20.1409 13.3508C20.2135 12.9055 20.251 12.4508 20.251 11.9961C20.251 11.5414 20.2135 11.0867 20.1409 10.6414L21.676 9.32892C21.7918 9.22979 21.8747 9.09777 21.9136 8.9504C21.9526 8.80303 21.9457 8.6473 21.894 8.50392L21.8729 8.44298C21.4503 7.26179 20.8174 6.16681 20.0049 5.21095L19.9627 5.16173C19.8642 5.04584 19.7328 4.96253 19.586 4.92278C19.4391 4.88303 19.2837 4.88871 19.1401 4.93907L17.2346 5.61642C16.5315 5.03986 15.7463 4.58517 14.8979 4.26642L14.5299 2.27423C14.5022 2.12433 14.4295 1.98642 14.3215 1.87884C14.2134 1.77125 14.0753 1.69907 13.9252 1.67189L13.862 1.66017C12.6409 1.43986 11.3565 1.43986 10.1354 1.66017L10.0721 1.67189C9.92212 1.69907 9.78393 1.77125 9.67592 1.87884C9.56791 1.98642 9.4952 2.12433 9.46744 2.27423L9.09712 4.27579C8.25546 4.59461 7.47166 5.04906 6.77681 5.62111L4.85728 4.93907C4.71376 4.88831 4.5582 4.88243 4.41125 4.9222C4.26431 4.96197 4.13295 5.04551 4.03462 5.16173L3.99244 5.21095C3.1809 6.16749 2.54816 7.26229 2.12447 8.44298L2.10337 8.50392C1.99791 8.79689 2.08462 9.12501 2.32134 9.32892L3.87525 10.6555C3.80259 11.0961 3.76744 11.5461 3.76744 11.9938C3.76744 12.4438 3.80259 12.8938 3.87525 13.332L2.32134 14.6586C2.20555 14.7577 2.12268 14.8898 2.08374 15.0371C2.04481 15.1845 2.05165 15.3402 2.10337 15.4836L2.12447 15.5445C2.54869 16.7258 3.17681 17.8156 3.99244 18.7766L4.03462 18.8258C4.13319 18.9417 4.26455 19.025 4.41141 19.0647C4.55827 19.1045 4.71372 19.0988 4.85728 19.0485L6.77681 18.3664C7.47525 18.9406 8.25572 19.3953 9.09712 19.7117L9.46744 21.7133C9.4952 21.8632 9.56791 22.0011 9.67592 22.1087C9.78393 22.2163 9.92212 22.2885 10.0721 22.3156L10.1354 22.3274C11.3677 22.5488 12.6297 22.5488 13.862 22.3274L13.9252 22.3156C14.0753 22.2885 14.2134 22.2163 14.3215 22.1087C14.4295 22.0011 14.5022 21.8632 14.5299 21.7133L14.8979 19.7211C15.746 19.4032 16.5356 18.947 17.2346 18.3711L19.1401 19.0485C19.2836 19.0992 19.4392 19.1051 19.5861 19.0653C19.7331 19.0256 19.8644 18.942 19.9627 18.8258L20.0049 18.7766C20.8206 17.8133 21.4487 16.7258 21.8729 15.5445L21.894 15.4836C21.9995 15.1953 21.9127 14.8672 21.676 14.6633ZM18.4768 10.918C18.5354 11.2719 18.5659 11.6352 18.5659 11.9984C18.5659 12.3617 18.5354 12.725 18.4768 13.0789L18.3221 14.0188L20.0729 15.5164C19.8075 16.1279 19.4725 16.7067 19.0745 17.2414L16.8995 16.4703L16.1635 17.075C15.6034 17.5344 14.9799 17.8953 14.3049 18.1485L13.412 18.4836L12.9924 20.757C12.3305 20.832 11.6622 20.832 11.0002 20.757L10.5807 18.4789L9.69478 18.1391C9.02681 17.886 8.40572 17.525 7.85025 17.068L7.11431 16.461L4.92525 17.2391C4.52681 16.7024 4.194 16.1235 3.92681 15.5141L5.69634 14.0024L5.544 13.0649C5.48775 12.7156 5.45728 12.3547 5.45728 11.9984C5.45728 11.6399 5.48541 11.2813 5.544 10.932L5.69634 9.99454L3.92681 8.48282C4.19166 7.87111 4.52681 7.29454 4.92525 6.75782L7.11431 7.53595L7.85025 6.92892C8.40572 6.47189 9.02681 6.11095 9.69478 5.85782L10.5831 5.52267L11.0026 3.24454C11.6612 3.16954 12.3338 3.16954 12.9948 3.24454L13.4143 5.51798L14.3073 5.85314C14.9799 6.10626 15.6057 6.4672 16.1659 6.92657L16.9018 7.53126L19.0768 6.76017C19.4753 7.29689 19.8081 7.87579 20.0752 8.48517L18.3245 9.98282L18.4768 10.918ZM12.001 7.63907C9.72291 7.63907 7.87603 9.48595 7.87603 11.7641C7.87603 14.0422 9.72291 15.8891 12.001 15.8891C14.2792 15.8891 16.126 14.0422 16.126 11.7641C16.126 9.48595 14.2792 7.63907 12.001 7.63907ZM13.8573 13.6203C13.6138 13.8645 13.3245 14.0581 13.0059 14.19C12.6873 14.322 12.3458 14.3896 12.001 14.3891C11.3002 14.3891 10.6417 14.1149 10.1448 13.6203C9.90062 13.3769 9.707 13.0875 9.57507 12.769C9.44314 12.4504 9.37549 12.1089 9.37603 11.7641C9.37603 11.0633 9.65025 10.4047 10.1448 9.90782C10.6417 9.41095 11.3002 9.13907 12.001 9.13907C12.7018 9.13907 13.3604 9.41095 13.8573 9.90782C14.1014 10.1513 14.2951 10.4406 14.427 10.7592C14.5589 11.0778 14.6266 11.4193 14.626 11.7641C14.626 12.4649 14.3518 13.1235 13.8573 13.6203Z" fill="black" fill-opacity="0.45"/>
</svg>
