<svg width="20" height="20" viewBox="0 0 20 20" fill="none" xmlns="http://www.w3.org/2000/svg">
<path d="M2.50008 17.5003H17.5001M12.1992 8.54887L16.2242 7.47053C16.4371 7.40905 16.6601 7.39064 16.8802 7.41637C17.1003 7.4421 17.313 7.51146 17.506 7.6204C17.6989 7.72933 17.8682 7.87565 18.004 8.05079C18.1397 8.22594 18.2392 8.42639 18.2965 8.64043C18.3539 8.85447 18.368 9.07779 18.338 9.29734C18.308 9.51689 18.2345 9.72825 18.1219 9.91907C18.0092 10.1099 17.8596 10.2763 17.6819 10.4086C17.5042 10.541 17.3018 10.6365 17.0867 10.6897L5.01253 13.9255L1.3042 9.7422L3.71837 9.09553L5.76003 10.2739L8.1742 9.6272L5.05503 4.42387L7.47003 3.77637L12.1992 8.54887Z" stroke="black" stroke-width="1.5" stroke-linecap="round" stroke-linejoin="round"/>
</svg>
