<svg width="21" height="20" viewBox="0 0 21 20" fill="none" xmlns="http://www.w3.org/2000/svg">
<path d="M16.3472 13.6699C15.8583 13.1806 15.2871 12.7813 14.6597 12.4902C15.5445 11.7734 16.1089 10.6797 16.1089 9.45309C16.1089 7.28903 14.3042 5.51364 12.1402 5.54684C10.0093 5.58005 8.29253 7.31638 8.29253 9.45309C8.29253 10.6797 8.85894 11.7734 9.74175 12.4902C9.11422 12.7811 8.54296 13.1804 8.05425 13.6699C6.98784 14.7383 6.38237 16.1484 6.34331 17.6523C6.34279 17.6732 6.34645 17.6939 6.35406 17.7133C6.36168 17.7327 6.37311 17.7504 6.38767 17.7653C6.40223 17.7803 6.41963 17.7921 6.43885 17.8002C6.45807 17.8083 6.47871 17.8125 6.49956 17.8125H7.59331C7.6773 17.8125 7.74761 17.7461 7.74956 17.6621C7.78667 16.5293 8.24566 15.4687 9.0523 14.664C9.46507 14.2491 9.95605 13.9201 10.4968 13.6961C11.0376 13.4722 11.6174 13.3577 12.2027 13.3593C13.3921 13.3593 14.5113 13.8222 15.3531 14.664C16.1578 15.4687 16.6167 16.5293 16.6558 17.6621C16.6578 17.7461 16.7281 17.8125 16.8121 17.8125H17.9058C17.9267 17.8125 17.9473 17.8083 17.9665 17.8002C17.9857 17.7921 18.0031 17.7803 18.0177 17.7653C18.0323 17.7504 18.0437 17.7327 18.0513 17.7133C18.0589 17.6939 18.0626 17.6732 18.0621 17.6523C18.023 16.1484 17.4175 14.7383 16.3472 13.6699ZM12.2027 11.9531C11.5347 11.9531 10.9058 11.6933 10.4351 11.2207C10.1989 10.9863 10.0123 10.7068 9.88645 10.3987C9.76061 10.0907 9.69812 9.76043 9.70269 9.4277C9.70855 8.78708 9.96441 8.16794 10.4117 7.70895C10.8804 7.22849 11.5074 6.96091 12.1773 6.95309C12.8394 6.94724 13.482 7.20505 13.9546 7.66794C14.439 8.14255 14.7046 8.77731 14.7046 9.45309C14.7046 10.1211 14.4449 10.748 13.9722 11.2207C13.7403 11.4537 13.4645 11.6384 13.1608 11.7641C12.8571 11.8898 12.5314 11.9541 12.2027 11.9531ZM7.31011 9.96872C7.29253 9.7988 7.28276 9.62692 7.28276 9.45309C7.28276 9.14255 7.31206 8.83981 7.36675 8.54489C7.38042 8.47458 7.34331 8.40231 7.27886 8.37302C7.01323 8.25388 6.76909 8.08981 6.55815 7.88278C6.3096 7.64178 6.11401 7.35161 5.98387 7.0308C5.85372 6.70998 5.79188 6.36555 5.80229 6.0195C5.81987 5.39255 6.07183 4.79684 6.51128 4.34763C6.9937 3.85349 7.64214 3.58395 8.33159 3.59177C8.95464 3.59763 9.5562 3.83786 10.0113 4.26364C10.1656 4.40817 10.2984 4.56833 10.4097 4.7402C10.4488 4.80075 10.525 4.82614 10.5914 4.8027C10.9351 4.68356 11.2984 4.59958 11.6714 4.56052C11.7808 4.5488 11.8433 4.43161 11.7945 4.33395C11.1597 3.07809 9.86284 2.21091 8.36284 2.18747C6.19683 2.15427 4.39214 3.92966 4.39214 6.09177C4.39214 7.31833 4.95659 8.41208 5.84136 9.12888C5.22026 9.41599 4.648 9.81247 4.1519 10.3086C3.08159 11.3769 2.47612 12.7871 2.43706 14.2929C2.43654 14.3138 2.4402 14.3345 2.44781 14.3539C2.45543 14.3733 2.46686 14.391 2.48142 14.406C2.49598 14.4209 2.51338 14.4327 2.5326 14.4408C2.55182 14.4489 2.57246 14.4531 2.59331 14.4531H3.68901C3.773 14.4531 3.84331 14.3867 3.84526 14.3027C3.88237 13.1699 4.34136 12.1093 5.148 11.3047C5.72222 10.7304 6.42534 10.332 7.19292 10.1386C7.26909 10.1191 7.31987 10.0468 7.31011 9.96872Z" fill="black" fill-opacity="0.88"/>
</svg>
