<svg width="19" height="20" viewBox="0 0 19 20" fill="none" xmlns="http://www.w3.org/2000/svg">
<path d="M17.3707 15.8969C16.9285 14.8496 16.2869 13.8984 15.4816 13.0961C14.6787 12.2915 13.7276 11.65 12.6808 11.207C12.6714 11.2023 12.6621 11.2 12.6527 11.1953C14.1129 10.1406 15.0621 8.42266 15.0621 6.48438C15.0621 3.27344 12.4605 0.671875 9.24957 0.671875C6.03863 0.671875 3.43707 3.27344 3.43707 6.48438C3.43707 8.42266 4.38629 10.1406 5.84645 11.1977C5.83707 11.2023 5.8277 11.2047 5.81832 11.2094C4.76832 11.6523 3.82613 12.2875 3.01754 13.0984C2.21295 13.9013 1.57146 14.8524 1.12848 15.8992C0.693294 16.924 0.45859 18.0228 0.43707 19.1359C0.436445 19.161 0.440832 19.1858 0.449975 19.2091C0.459117 19.2324 0.472829 19.2537 0.490303 19.2716C0.507776 19.2895 0.528658 19.3037 0.551718 19.3134C0.574777 19.3231 0.599548 19.3281 0.62457 19.3281H2.03082C2.13395 19.3281 2.21598 19.2461 2.21832 19.1453C2.2652 17.3359 2.99176 15.6414 4.27613 14.357C5.60504 13.0281 7.36988 12.2969 9.24957 12.2969C11.1293 12.2969 12.8941 13.0281 14.223 14.357C15.5074 15.6414 16.2339 17.3359 16.2808 19.1453C16.2832 19.2484 16.3652 19.3281 16.4683 19.3281H17.8746C17.8996 19.3281 17.9244 19.3231 17.9474 19.3134C17.9705 19.3037 17.9914 19.2895 18.0088 19.2716C18.0263 19.2537 18.04 19.2324 18.0492 19.2091C18.0583 19.1858 18.0627 19.161 18.0621 19.1359C18.0386 18.0156 17.8066 16.9258 17.3707 15.8969ZM9.24957 10.5156C8.17379 10.5156 7.16129 10.0961 6.39957 9.33438C5.63785 8.57266 5.21832 7.56016 5.21832 6.48438C5.21832 5.40859 5.63785 4.39609 6.39957 3.63437C7.16129 2.87266 8.17379 2.45312 9.24957 2.45312C10.3254 2.45312 11.3379 2.87266 12.0996 3.63437C12.8613 4.39609 13.2808 5.40859 13.2808 6.48438C13.2808 7.56016 12.8613 8.57266 12.0996 9.33438C11.3379 10.0961 10.3254 10.5156 9.24957 10.5156Z" fill="black"/>
</svg>
