<svg width="24" height="25" viewBox="0 0 24 25" fill="none" xmlns="http://www.w3.org/2000/svg">
<path d="M20.9061 18.5937H19.0311V16.7187C19.0311 16.6156 18.9467 16.5312 18.8436 16.5312H17.7186C17.6155 16.5312 17.5311 16.6156 17.5311 16.7187V18.5937H15.6561C15.553 18.5937 15.4686 18.6781 15.4686 18.7812V19.9062C15.4686 20.0093 15.553 20.0937 15.6561 20.0937H17.5311V21.9687C17.5311 22.0718 17.6155 22.1562 17.7186 22.1562H18.8436C18.9467 22.1562 19.0311 22.0718 19.0311 21.9687V20.0937H20.9061C21.0092 20.0937 21.0936 20.0093 21.0936 19.9062V18.7812C21.0936 18.6781 21.0092 18.5937 20.9061 18.5937ZM8.75375 12.1812C8.73266 11.9773 8.72094 11.771 8.72094 11.5624C8.72094 11.1898 8.75609 10.8265 8.82172 10.4726C8.83812 10.3882 8.79359 10.3015 8.71625 10.2663C8.3975 10.1234 8.10453 9.9265 7.85141 9.67806C7.55314 9.38886 7.31843 9.04066 7.16226 8.65568C7.00609 8.2707 6.93188 7.85739 6.94437 7.44213C6.96547 6.68978 7.26781 5.97494 7.79516 5.43588C8.37406 4.84291 9.15219 4.51947 9.97953 4.52885C10.7272 4.53588 11.4491 4.82416 11.9952 5.3351C12.1803 5.50853 12.3397 5.70072 12.4733 5.90697C12.5202 5.97963 12.6116 6.0101 12.6912 5.98197C13.1037 5.839 13.5397 5.73822 13.9873 5.69135C14.1186 5.67728 14.1936 5.53666 14.135 5.41947C13.3733 3.91244 11.817 2.87181 10.017 2.84369C7.42016 2.80385 5.25453 4.93431 5.25453 7.53119C5.25453 9.00306 5.93187 10.3156 6.99359 11.1757C6.24828 11.5203 5.56156 11.996 4.96625 12.5913C3.68187 13.8734 2.95531 15.5656 2.90844 17.3726C2.90781 17.3976 2.9122 17.4225 2.92134 17.4458C2.93048 17.4691 2.9442 17.4903 2.96167 17.5082C2.97914 17.5261 3.00003 17.5404 3.02308 17.5501C3.04614 17.5598 3.07092 17.5648 3.09594 17.5648H4.41078C4.51156 17.5648 4.59594 17.4851 4.59828 17.3843C4.64281 16.0249 5.19359 14.7523 6.16156 13.7867C6.85062 13.0976 7.69437 12.6195 8.61547 12.3874C8.70453 12.3617 8.76547 12.2749 8.75375 12.1812ZM19.3123 11.5624C19.3123 8.99838 17.2522 6.91478 14.6975 6.87494C12.1006 6.8351 9.93734 8.96556 9.93734 11.5624C9.93734 13.0343 10.617 14.3468 11.6764 15.207C10.9234 15.556 10.2379 16.0353 9.65141 16.6226C8.36703 17.9046 7.64047 19.5968 7.59359 21.4015C7.59297 21.4265 7.59736 21.4514 7.6065 21.4747C7.61564 21.498 7.62935 21.5192 7.64683 21.5371C7.6643 21.555 7.68518 21.5693 7.70824 21.579C7.7313 21.5887 7.75607 21.5937 7.78109 21.5937H9.09359C9.19437 21.5937 9.27875 21.514 9.28109 21.4132C9.32562 20.0538 9.87641 18.7812 10.8444 17.8156C11.8545 16.8054 13.1952 16.2499 14.6248 16.2499C17.2123 16.2499 19.3123 14.1523 19.3123 11.5624ZM16.7459 13.6835C16.1788 14.2507 15.4264 14.5624 14.6248 14.5624C13.8233 14.5624 13.0709 14.2507 12.5037 13.6835C12.2207 13.402 11.9971 13.0665 11.8461 12.6969C11.6951 12.3273 11.6199 11.9312 11.6248 11.532C11.6319 10.7632 11.9389 10.0203 12.4756 9.46947C13.0381 8.89291 13.7905 8.57181 14.5944 8.56244C15.3889 8.55541 16.16 8.86478 16.7272 9.42025C17.3084 9.98978 17.6272 10.7515 17.6272 11.5624C17.6248 12.364 17.3131 13.1163 16.7459 13.6835Z" fill="black"/>
</svg>
